<svg width="161" height="53" viewBox="0 0 161 53" fill="none" xmlns="http://www.w3.org/2000/svg">
<rect x="0.50885" y="0.464996" width="160" height="52" rx="26" fill="#4527A0"/>
<path d="M35.5088 12.4025C27.7534 12.4025 21.4464 18.7096 21.4464 26.465C21.4464 34.2204 27.7534 40.5275 35.5088 40.5275C43.2642 40.5275 49.5713 34.2204 49.5713 26.465C49.5713 18.7096 43.2642 12.4025 35.5088 12.4025ZM35.5088 14.2775C42.2509 14.2775 47.7037 19.7229 47.7037 26.465C47.7037 33.2071 42.2509 38.6598 35.5088 38.6598C28.7668 38.6598 23.3213 33.2071 23.3213 26.465C23.3213 19.7229 28.7668 14.2775 35.5088 14.2775ZM35.496 18.9705C35.2484 18.9748 35.0125 19.0771 34.8399 19.2548C34.6673 19.4325 34.5721 19.6713 34.575 19.919V20.7082C33.0613 20.9921 31.7662 21.9669 31.7662 23.6562C31.7662 24.828 32.2945 25.7758 33.004 26.3277C33.7135 26.8795 34.5146 27.1242 35.2177 27.3585C35.9208 27.5929 36.5278 27.817 36.873 28.0855C37.2182 28.354 37.3838 28.5799 37.3838 29.283C37.3838 30.8455 33.6412 30.8455 33.6412 29.283C33.6439 29.1581 33.6217 29.034 33.5759 28.9178C33.53 28.8016 33.4614 28.6958 33.3741 28.6065C33.2867 28.5172 33.1824 28.4463 33.0673 28.3978C32.9522 28.3494 32.8286 28.3245 32.7037 28.3245C32.5788 28.3245 32.4551 28.3494 32.34 28.3978C32.2249 28.4463 32.1206 28.5172 32.0333 28.6065C31.946 28.6958 31.8773 28.8016 31.8315 28.9178C31.7856 29.034 31.7634 29.1581 31.7662 29.283C31.7662 30.9709 33.0624 31.9475 34.575 32.2328V33.0183C34.5722 33.1432 34.5944 33.2674 34.6403 33.3835C34.6862 33.4997 34.7548 33.6055 34.8421 33.6948C34.9295 33.7841 35.0337 33.855 35.1489 33.9035C35.264 33.9519 35.3876 33.9769 35.5125 33.9769C35.6374 33.9769 35.761 33.9519 35.8762 33.9035C35.9913 33.855 36.0956 33.7841 36.1829 33.6948C36.2702 33.6055 36.3388 33.4997 36.3847 33.3835C36.4306 33.2674 36.4528 33.1432 36.45 33.0183V32.2328C37.9629 31.9477 39.2607 30.9712 39.2607 29.283C39.2607 28.1111 38.7306 27.1633 38.0211 26.6115C37.3116 26.0596 36.5104 25.8131 35.8073 25.5788C35.1042 25.3444 34.4972 25.1221 34.152 24.8537C33.8069 24.5852 33.6412 24.3593 33.6412 23.6562C33.6412 22.0937 37.3838 22.0937 37.3838 23.6562C37.3838 23.905 37.4827 24.1437 37.6587 24.3197C37.8347 24.4957 38.0734 24.5946 38.3223 24.5946C38.5711 24.5946 38.8098 24.4957 38.9858 24.3197C39.1618 24.1437 39.2607 23.905 39.2607 23.6562C39.2607 21.9694 37.9624 20.9956 36.45 20.71V19.919C36.4515 19.7935 36.4278 19.6691 36.3803 19.553C36.3328 19.4369 36.2625 19.3315 36.1735 19.243C36.0846 19.1546 35.9788 19.0849 35.8624 19.0381C35.746 18.9913 35.6215 18.9683 35.496 18.9705Z" fill="#FAFAFA"/>
<path d="M69.2489 18.765H71.8889V34.265C71.8889 35.745 71.5489 36.405 70.6289 36.785C69.7089 37.185 68.3289 37.265 66.3689 37.245C66.2489 36.545 65.7889 35.405 65.4089 34.745C66.7289 34.825 68.2289 34.805 68.6489 34.785C69.0889 34.785 69.2489 34.645 69.2489 34.245V18.765ZM74.0689 24.025L76.4089 23.145C78.0489 25.965 79.7089 29.625 80.2089 32.125L77.5889 33.165C77.1689 30.745 75.6489 26.965 74.0689 24.025ZM64.0089 23.345L66.7489 23.805C66.0689 26.825 64.9689 30.565 63.2889 32.785C62.7089 32.345 61.6089 31.785 60.9489 31.525C62.5689 29.485 63.5889 25.965 64.0089 23.345ZM81.3889 20.445H90.3689V24.085H88.5489V22.345H83.1289V24.085H81.3889V20.445ZM82.7489 31.065H89.4489V37.245H87.3489V32.925H84.7489V37.245H82.7489V31.065ZM83.4289 34.885H88.7689V36.745H83.4289V34.885ZM84.1889 22.645L86.0089 22.985C85.3289 24.925 84.2689 26.625 82.4489 27.945C82.2089 27.445 81.6489 26.665 81.2689 26.345C82.8289 25.365 83.7489 23.965 84.1889 22.645ZM84.8689 23.925H88.3089V25.685H84.1289L84.8689 23.925ZM87.8089 23.925H88.1889L88.5289 23.845L89.7089 24.685C88.2689 28.365 85.2089 30.625 82.0289 31.745C81.8289 31.205 81.2489 30.245 80.8689 29.845C83.9489 28.985 86.7289 27.065 87.8089 24.285V23.925ZM84.5089 19.165L86.4089 18.505C86.7489 19.305 87.1689 20.365 87.3689 21.045L85.3289 21.825C85.1889 21.125 84.8089 20.005 84.5089 19.165ZM90.7889 19.285H99.7689V21.305H90.7889V19.285ZM93.4289 27.405V28.565H97.0289V27.405H93.4289ZM93.4289 30.265V31.465H97.0289V30.265H93.4289ZM93.4289 24.525V25.665H97.0289V24.525H93.4289ZM91.3089 22.685H99.2889V33.285H91.3089V22.685ZM94.1689 20.405L96.4289 20.745C96.0889 21.885 95.7089 23.025 95.4289 23.805L93.6889 23.385C93.8689 22.505 94.0889 21.285 94.1689 20.405ZM93.5089 33.245L94.9889 34.785C93.7489 35.725 92.0289 36.725 90.6489 37.365C90.4289 36.865 89.9889 36.105 89.6689 35.605C90.9089 35.045 92.5889 34.045 93.5089 33.245ZM95.3689 34.645L96.6289 33.165C97.7289 33.825 99.2689 34.905 100.069 35.625L98.6889 37.285C97.9689 36.525 96.4689 35.385 95.3689 34.645ZM83.3089 27.685L84.6489 26.285C86.4489 27.265 89.1489 28.805 90.5489 29.745L89.1289 31.365C87.8489 30.405 85.1889 28.785 83.3089 27.685ZM111.789 21.045V22.865H116.269V21.045H111.789ZM109.549 19.145H118.609V24.785H109.549V19.145ZM116.769 25.825H119.209V34.805C119.209 35.925 118.989 36.525 118.269 36.905C117.529 37.245 116.509 37.285 115.109 37.285C115.029 36.625 114.729 35.685 114.429 35.085C115.209 35.125 116.149 35.105 116.409 35.105C116.669 35.105 116.769 35.025 116.769 34.785V25.825ZM101.109 28.645C102.949 28.265 105.689 27.605 108.249 26.945L108.549 29.145C106.209 29.785 103.689 30.445 101.729 30.945L101.109 28.645ZM101.349 22.285H108.509V24.525H101.349V22.285ZM103.829 18.485H106.169V34.685C106.169 35.825 105.969 36.425 105.289 36.785C104.609 37.145 103.649 37.225 102.229 37.205C102.149 36.605 101.849 35.645 101.569 35.045C102.349 35.065 103.189 35.065 103.449 35.065C103.729 35.045 103.829 34.965 103.829 34.685V18.485ZM110.129 25.825H118.029V27.865H110.129V25.825ZM109.029 25.825H111.409V29.165C111.409 31.645 111.089 35.185 109.309 37.445C108.889 37.045 107.829 36.345 107.269 36.085C108.869 34.065 109.029 31.185 109.029 29.125V25.825ZM110.829 32.585C112.489 32.285 114.989 31.785 117.409 31.265L117.629 33.185C115.549 33.765 113.369 34.365 111.609 34.825L110.829 32.585ZM111.329 30.105L112.249 28.485C113.649 28.705 115.489 29.225 116.489 29.705L115.529 31.485C114.589 31.005 112.749 30.405 111.329 30.105ZM133.629 25.585H135.889V26.585C135.889 29.465 135.529 33.985 131.829 37.345C131.429 36.805 130.589 36.065 130.009 35.705C133.329 32.825 133.629 29.005 133.629 26.525V25.585ZM135.729 28.005C136.369 31.165 137.709 33.945 140.109 35.205C139.589 35.665 138.849 36.585 138.489 37.225C135.849 35.585 134.569 32.305 133.809 28.345L135.729 28.005ZM121.369 20.085H130.749V22.045H121.369V20.085ZM121.089 28.825H130.969V30.785H121.089V28.825ZM121.849 23.065H130.289V25.005H121.849V23.065ZM121.969 25.945H130.189V27.885H121.969V25.945ZM124.949 18.605H127.209V24.325H124.949V18.605ZM122.369 31.145L124.329 31.625C123.929 33.105 123.269 34.805 122.729 35.885C122.269 35.605 121.369 35.245 120.869 35.065C121.469 34.045 122.029 32.505 122.369 31.145ZM127.769 31.805L129.549 31.125C130.049 32.085 130.629 33.405 130.869 34.205L128.969 35.005C128.769 34.185 128.249 32.825 127.769 31.805ZM132.549 22.105H138.189V24.285H132.549V22.105ZM132.149 18.505L134.489 18.845C134.009 22.485 133.089 25.985 131.689 28.225C131.269 27.825 130.289 27.105 129.749 26.765C131.069 24.865 131.809 21.705 132.149 18.505ZM137.569 22.105H137.889L138.269 22.025L139.909 22.465C139.529 24.445 138.969 26.705 138.449 28.185L136.509 27.605C136.889 26.285 137.329 24.145 137.569 22.465V22.105ZM124.989 29.625H127.229V37.245H124.989V29.625Z" fill="white"/>
</svg>
