<svg width="32" height="32" viewBox="0 0 32 32" fill="none" xmlns="http://www.w3.org/2000/svg">
<g clip-path="url(#clip0_1141_443)">
<rect width="32" height="32" fill="white"/>
<path d="M16 0C7.16118 0 0 7.16118 0 16C0 24.8388 7.16118 32 16 32C24.8388 32 32 24.8388 32 16C32 7.16118 24.8334 0 16 0ZM23.3675 22.7051C22.754 23.7801 21.8745 24.6054 20.7289 25.1809C19.5833 25.7564 18.0685 26.0495 16.2009 26.0495C14.3332 26.0495 12.9379 25.8378 11.8846 25.4089C10.8314 24.98 9.96268 24.3556 9.28402 23.5249C8.60536 22.6997 8.08415 21.6627 7.71496 20.414L13.2854 19.6756C13.5025 20.7995 13.8446 21.5758 14.3061 22.0102C14.7676 22.4445 15.3539 22.6617 16.0652 22.6617C16.8144 22.6617 17.4333 22.3902 17.9328 21.8419C18.4323 21.2935 18.6766 20.566 18.6766 19.6539C18.6766 18.7418 18.4377 18.0034 17.96 17.493C17.4822 16.9827 16.8307 16.7275 16.0109 16.7275C15.5711 16.7275 14.9684 16.8361 14.2029 17.0533L14.4907 13.0736C14.8001 13.1171 15.0445 13.1442 15.2182 13.1442C15.9457 13.1442 16.5592 12.9108 17.0424 12.4438C17.5256 11.9769 17.7754 11.4286 17.7754 10.7879C17.7754 10.1473 17.5908 9.69121 17.227 9.32202C16.8633 8.95826 16.3583 8.77367 15.7231 8.77367C15.0879 8.77367 14.5341 8.97455 14.1215 9.37089C13.7089 9.76722 13.432 10.4622 13.2854 11.4557L8.019 10.511C8.45877 8.83339 9.30031 7.54666 10.5436 6.65083C11.7869 5.75501 13.5514 5.30981 15.8317 5.30981C18.4486 5.30981 20.3434 5.79844 21.5107 6.7757C22.678 7.75297 23.2643 8.97998 23.2643 10.4567C23.2643 11.3254 23.0254 12.1072 22.5531 12.813C22.0808 13.5188 21.3641 14.1323 20.4031 14.659C21.1795 14.849 21.7713 15.077 22.1839 15.3322C22.8517 15.7448 23.3675 16.2823 23.7367 16.9555C24.1059 17.6233 24.2905 18.4269 24.2905 19.3553C24.2905 20.5226 23.9864 21.641 23.3729 22.716L23.3675 22.7051Z" fill="#4527A0"/>
</g>
<defs>
<clipPath id="clip0_1141_443">
<rect width="32" height="32" fill="white"/>
</clipPath>
</defs>
</svg>
