<svg width="24" height="23" viewBox="0 0 24 23" fill="none" xmlns="http://www.w3.org/2000/svg">
<path d="M13.75 11.5L22.875 2.375C23.375 1.875 23.375 1.125 22.875 0.625C22.375 0.125 21.625 0.125 21.125 0.625L12 9.75L2.875 0.625C2.375 0.125 1.625 0.125 1.125 0.625C0.625 1.125 0.625 1.875 1.125 2.375L10.25 11.5L1.125 20.625C0.625 21.125 0.625 21.875 1.125 22.375C1.375 22.625 1.625 22.75 2 22.75C2.375 22.75 2.625 22.625 2.875 22.375L12 13.25L21.125 22.375C21.375 22.625 21.75 22.75 22 22.75C22.25 22.75 22.625 22.625 22.875 22.375C23.375 21.875 23.375 21.125 22.875 20.625L13.75 11.5Z" fill="#FAFAFA"/>
</svg>
