<svg width="173" height="34" viewBox="0 0 173 34" fill="none" xmlns="http://www.w3.org/2000/svg">
<path d="M32.11 27.535H22.065V33.87H10.27V27.535H0.715V23.72L2.43 22.005V21.69H0.89V18.96L3.515 16.58H0.75V1.635H32.32V16.58H17.025L11.88 21.27H13.35L17.48 17.49H27.91V18.995L23.92 22.74H25.46L29.1 19.205H32.11V27.535ZM12.615 6.745H9.815V7.865H12.615V6.745ZM22.835 7.865V6.745H20.035V7.865H22.835ZM9.815 10.805V11.925H12.615V10.805H9.815ZM20.035 11.925H22.835V10.805H20.035V11.925ZM0.26 30.02L2.29 28.27H9.465V33.485H0.26V30.02ZM30.43 28.27L32.46 30.02V33.485H22.905V28.27H30.43ZM67.775 11.26V15.285H47.405V11.26H52.865V10.49H47.545V7.06H52.865V6.29H47.405V2.195H52.865V1.18H61.545V2.195H67.74V6.29H61.545V7.06H67.495V10.49H61.545V11.26H67.775ZM35.575 8.46V1.67H46.74V7.305L45.235 8.285V9.685H46.635V17.35H45.235V18.47L46.6 20.08V28.2H45.235V33.765H37.465V29.075L36.555 30.755H35.19V20.64L37.255 17.35H35.47V9.685H37.465V8.46H35.575ZM66.41 30.16L68.055 32.085V33.765H59.655L58.22 31.28H56.995L55.56 33.765H46.95V32.085L48.665 30.16H47.475V16.055H67.6V30.16H66.41ZM60.04 20.22H54.72V21.025H60.04V20.22ZM60.04 24.105V23.3H54.72V24.105H60.04ZM54.72 26.415V27.22H60.04V26.415H54.72ZM102.39 2.65V21.48H81.39V4.995L85.03 1.32H92.275V2.65H102.39ZM70.575 6.955L74.32 1.74H80.69V6.255L78.135 9.72V9.965H80.655V15.915L78.52 18.54V18.75H80.585V25.4H70.435V17.56L72.29 14.76V14.585H70.575V6.955ZM96.195 17.035V8.425H92.625V9.055H95.565V14.235L93.675 16.44H88.04V13.78H88.81L88.285 12.87V12.31H91.015L91.61 13.29L92.205 12.625V11.785H88.04V9.545L89.055 8.425H87.445V17.035H96.195ZM93.29 22.11V27.5H97.07V33.835H87.305V22.11H93.29ZM93.99 26.8V22.145H95.95L97.035 23.58V26.8H93.99ZM81.32 33.345V22.18H86.64V33.345H81.32ZM97.735 22.18H102.775V33.345H97.735V22.18ZM70.225 27.71L71.17 26.24H73.9V33.73H70.225V27.71ZM74.53 33.73V26.24H77.47V33.73H74.53ZM78.135 33.73V26.24H80.62V33.73H78.135ZM135.36 15.18H126.89V16.125H137.04V21.48H126.89V27.745H137.635V33.73H105.435V27.745H116.005V21.48H105.995V16.125H116.005V15.18H107.675V13.36H105.26V5.625L116.145 0.969999H126.365L137.81 5.8V13.36H135.36V15.18ZM119.47 8.355L116.005 9.72H126.785L123.215 8.355H119.47ZM115.165 22.355V26.87H108.2L106.52 25.33V22.355H115.165ZM134.73 26.87H127.695V22.355H136.41V25.33L134.73 26.87ZM152.265 1.005V2.475H157.095V11.4H156.325V17.77L155.03 18.68L157.025 20.36V27.885H156.15V33.73H141.275V27.885H140.19V20.36L142.36 18.96L141.205 17.98V15.425H147.225L148.38 16.265L150.235 14.97V14.655H141.205V11.47H140.225V2.475H144.74V1.005H152.265ZM171.445 29.355L172.67 31.595V33.765H166.125L165.285 30.475H164.865L163.92 33.765H157.375V31.595L158.88 29.355H157.83V9.615H161.19L161.54 8.6H157.9V1.635H172.565V8.6H168.645L168.33 9.615H172.46V29.355H171.445ZM149.99 10.455H151.775V8.46H145.265V9.335H149.99V10.455ZM166.615 16.055V15.075H163.36V16.055H166.615ZM166.615 20.36V19.415H163.36V20.36H166.615ZM148.66 21.585L146.805 22.845H150.41L148.66 21.585ZM163.36 23.615V24.595H166.615V23.615H163.36ZM150.095 29.075V27.57H147.225V29.075H150.095Z" fill="#4527A0"/>
</svg>
